<?xml version="1.0" standalone="no"?>
<!DOCTYPE svg PUBLIC "-//W3C//DTD SVG 20010904//EN"
 "http://www.w3.org/TR/2001/REC-SVG-20010904/DTD/svg10.dtd">
<svg version="1.0" xmlns="http://www.w3.org/2000/svg"
 width="800.000000pt" height="800.000000pt" viewBox="0 0 800.000000 800.000000"
 preserveAspectRatio="xMidYMid meet">
<metadata>
Created by potrace 1.14, written by Peter Selinger 2001-2017
</metadata>
<g transform="translate(0.000000,800.000000) scale(0.100000,-0.100000)"
fill="#000000" stroke="none">
<path d="M3758 7995 c-2 -1 -39 -6 -83 -9 -287 -23 -586 -81 -845 -163 -63
-20 -119 -37 -125 -39 -20 -4 -173 -63 -269 -104 -152 -64 -390 -186 -516
-265 -159 -100 -414 -281 -468 -332 -10 -10 -43 -38 -73 -63 -84 -69 -319
-305 -409 -410 -397 -462 -689 -1020 -840 -1606 -11 -45 -22 -90 -25 -100 -31
-146 -47 -225 -51 -254 -3 -19 -7 -46 -9 -60 -27 -151 -39 -336 -39 -595 -1
-208 3 -298 20 -450 9 -83 54 -346 69 -410 9 -33 17 -69 20 -80 28 -136 133
-451 206 -622 103 -243 271 -541 422 -753 34 -47 64 -87 67 -90 3 -3 18 -23
35 -45 109 -149 374 -428 545 -575 185 -160 427 -330 629 -444 146 -83 452
-230 501 -241 8 -2 49 -17 90 -33 217 -85 564 -175 800 -207 25 -3 56 -8 70
-10 14 -2 57 -7 95 -11 39 -3 79 -8 90 -11 11 -2 139 -6 285 -7 359 -4 531 12
915 88 63 13 237 61 350 97 195 62 340 121 542 219 678 332 1243 841 1640
1480 200 323 360 688 457 1048 33 124 82 339 92 411 3 20 7 47 9 61 45 262 54
757 19 1044 -22 177 -66 419 -99 536 -9 30 -18 66 -21 80 -11 55 -116 356
-161 462 -67 160 -163 353 -243 488 -65 109 -215 339 -229 350 -4 3 -24 29
-45 58 -21 29 -47 63 -57 75 -119 144 -174 204 -303 332 -201 201 -416 377
-600 493 -32 20 -64 42 -70 47 -13 11 -17 13 -146 88 -198 115 -463 237 -678
311 -90 31 -288 92 -332 101 -8 2 -67 15 -130 30 -63 14 -131 28 -150 31 -19
3 -73 11 -120 19 -47 7 -116 17 -155 20 -38 4 -83 9 -100 12 -32 5 -571 13
-577 8z"/>
</g>
</svg>
